<svg xmlns="http://www.w3.org/2000/svg" width="63.999" height="66"><g fill="none" stroke="#669eeb" stroke-miterlimit="79.84"><path d="M47.999 21.997v-21h-47v64h47v-23" stroke-width="2"/><path d="M39.046 42.297L26.385 20.821c-1.04-1.765-2.731-1.765-3.771 0L9.951 42.297c-1.04 1.765-.221 3.2 1.828 3.2h25.439c2.049 0 2.868-1.433 1.828-3.2z" stroke-width="1.007"/><path d="M25.674 28.913l-3.749 5.572h3.749l-3.749 5.571" stroke-width="1.007"/><path d="M53.999-.003v21m6-21v21m-12 0h15v22h-15" stroke-width="2"/><path d="M47.499 18.997v26"/><path d="M53.999 65.997v-22m6 22v-22" stroke-width="2"/></g></svg>