<svg xmlns="http://www.w3.org/2000/svg" width="55.981" height="74"><g fill="none" stroke="#669eeb" stroke-miterlimit="79.84"><path d="M28.326 3.003h16.032l4.624 3.534v66.46h-39V20.55z" stroke-width="2"/><path d="M55.482 44.504a26.339 26.339 0 01-6.469 17.177M9.452 64.117A25.916 25.916 0 01.5 44.502a25.919 25.919 0 018.752-19.441m39.943 2.395a25.959 25.959 0 013.352 5.664m-36.065-6.623v8.009h8v-8.009zm0 30v8.009h8v-8.009zm39-11.5v-45m-3 45v-45m-26 44.518a2.01 2.01 0 01-2-2.012 2.01 2.01 0 012-2.012 2.01 2.01 0 012 2.012 2.01 2.01 0 01-2 2.012zm4-32a2.01 2.01 0 01-2-2.012 2.01 2.01 0 012-2.012 2.01 2.01 0 012 2.012 2.01 2.01 0 01-2 2.012z"/><path d="M9.316 59.647a22.609 22.609 0 01-5.825-15.144 22.6 22.6 0 015.643-14.939m40.025 3.164a22.5 22.5 0 013.316 11.775 22.488 22.488 0 01-3.493 12.053"/><path d="M9.318 54.733a19.874 19.874 0 01-2.817-10.231 19.872 19.872 0 012.681-10.005"/></g></svg>