<svg xmlns="http://www.w3.org/2000/svg" width="78.01" height="60.123"><g fill="none" stroke="#669eeb" stroke-miterlimit="79.84"><path d="M39.005 58.115a28.012 28.012 0 01-28-28 28.012 28.012 0 0128-28 28.012 28.012 0 0128 28 28.012 28.012 0 01-28 28z" stroke-width="2"/><path d="M39.005 47.625a3.512 3.512 0 01-3.511-3.51 3.523 3.523 0 013.511-3.52 3.523 3.523 0 013.511 3.52 3.512 3.512 0 01-3.511 3.51zm-1.8-10c-1.035-8.413-2.7-14.547-2.7-22.173 0-2.893 1.736-4.8 4.539-4.84 2.8.04 4.5 1.947 4.5 4.84 0 7.627-1.668 13.76-2.7 22.173z"/><path d="M39.005 53.615a23.5 23.5 0 01-23.5-23.5 23.513 23.513 0 0123.5-23.5 23.513 23.513 0 0123.5 23.5 23.5 23.5 0 01-23.5 23.5z"/><path d="M62.054 59.105a1.506 1.506 0 01.155-2.12 35.432 35.432 0 0012.301-26.87 35.428 35.428 0 00-12.3-26.867 1.506 1.506 0 01-.155-2.12 1.508 1.508 0 012.116-.147A38.4 38.4 0 0177.51 30.115a38.406 38.406 0 01-13.34 29.133 1.5 1.5 0 01-2.116-.147zm-48.217.147A38.4 38.4 0 01.5 30.115 38.4 38.4 0 0113.837.982a1.508 1.508 0 012.116.147 1.506 1.506 0 01-.155 2.12A35.425 35.425 0 003.5 30.115a35.43 35.43 0 0012.3 26.867 1.506 1.506 0 01.155 2.12 1.5 1.5 0 01-2.118.15z" stroke-linejoin="bevel"/></g></svg>