<svg xmlns="http://www.w3.org/2000/svg" width="63" height="80"><g fill="none" stroke="#669eeb" stroke-miterlimit="79.84"><path d="M15.001 78.997v-4h-14v-71h3v-3h55v3h3v71h-15v4z" stroke-width="2"/><path d="M16.001 74.497h15m-26-70h26m15 70h-15m27-70h-27m-17.5-.5l.067 70m11.933-70l.067 70m11.933-70l.067 70m11.933-70l.067 70m-45.567-8.5h1m5 0h1m-7 4h1m5 0h1m-7-62h1m5 0h1m5 58h1m5 0h1m-7 4h1m5 0h1m-7-62h1m5 0h1m5 58h1m5 0h1m-7 4h1m5 0h1m-7-62h1m5 0h1m5 58h1m5 0h1m-7 4h1m5 0h1m-7-62h1m5 0h1m5 58h1m5 0h1m-7 4h1m5 0h1m-7-62h1m5 0h1"/></g></svg>