<svg xmlns="http://www.w3.org/2000/svg" width="72.999" height="64.5"><g fill="none" stroke="#669eeb" stroke-miterlimit="79.84"><path d="M25.499 10.496h7v20h-7"/><path d="M6.499 36.496v-29h19v29m7-23h8m0 17h7v-20h-7zm-8-3h8m12-14v8m9-8v14"/><path d="M57.499 27.496h11l3-3v-8l-3-3h-21"/><path d="M47.499 21.496h10v9h-10M6.524 26.971a14.467 14.467 0 01-5.025-10.975 14.5 14.5 0 0114.5-14.5 14.511 14.511 0 0113.4 8.961"/><path d="M10.509 15.996a5.5 5.5 0 015.49-5.5 5.5 5.5 0 015.489 5.507 5.5 5.5 0 01-5.489 5.503 5.5 5.5 0 01-5.49-5.51zm14.99 23.5h7v20h-7m-19-23.5v27h19v-28m7 7.5h8m0 17h7v-20h-7zm-8-3h8m12-14v8m9-8v14"/><path d="M57.499 56.496h11l3-3v-8l-3-3h-21"/><path d="M47.499 50.496h10v9h-10m-22.066-25.5a14.537 14.537 0 013.937 5.4M6.424 55.883a14.463 14.463 0 01-4.925-10.887A14.467 14.467 0 016.46 34.079m4.049 10.917a5.5 5.5 0 015.49-5.5 5.5 5.5 0 015.489 5.507 5.5 5.5 0 01-5.489 5.503 5.5 5.5 0 01-5.49-5.51z"/><path d="M5.999 63.496v-7.325a14.96 14.96 0 01-5-11.175 14.962 14.962 0 015-11.173v-6.649a14.961 14.961 0 01-5-11.178 15 15 0 0115-15 15.011 15.011 0 0113.748 9h3.252v3h7v-3h8v3h20.707l3.293 3.3v8.415l-3.294 3.285H57.999v3h-18v-3h-7v3h-7v2.825a15.073 15.073 0 013.747 5.175h3.253v3h7v-3h8v3h20.707l3.293 3.3v8.415l-3.294 3.285H57.999v3h-18v-3h-7v3h-7v3.5z" stroke-width="2"/></g></svg>