<svg xmlns="http://www.w3.org/2000/svg" width="52.996" height="79.999"><g fill="none" stroke="#669eeb" stroke-miterlimit="79.84"><path d="M.999.997v78h51v-78z" stroke-width="2"/><path d="M27.499 1.997v76M10.493 11.506v13.988a4.007 4.007 0 004.005 4.005h0a4.007 4.007 0 004.005-4.005V11.506a4.007 4.007 0 00-4.005-4.005h0a4.007 4.007 0 00-4.005 4.005zm0 41v13.988a4.007 4.007 0 004.005 4.005h0a4.007 4.007 0 004.005-4.005V52.506a4.007 4.007 0 00-4.005-4.005h0a4.007 4.007 0 00-4.005 4.005zm25-41v13.988a4.007 4.007 0 004.005 4.005h0a4.007 4.007 0 004.005-4.005V11.506a4.007 4.007 0 00-4.005-4.005h0a4.007 4.007 0 00-4.005 4.005zm0 41v13.988a4.007 4.007 0 004.005 4.005h0a4.007 4.007 0 004.005-4.005V52.506a4.007 4.007 0 00-4.005-4.005h0a4.007 4.007 0 00-4.005 4.005zM24.499 4.997v70m-20-70v70m19.5-38.5h-2.5v8h2.5m-19-8h2.5v8h-2.5"/></g></svg>