<svg xmlns="http://www.w3.org/2000/svg" width="72.986" height="80.997"><g fill="none" stroke="#669eeb" stroke-miterlimit="79.84"><path d="M11.986 14.997v52h60v-52zm2.948 0l.052-14h54l-.152 14" stroke-width="2"/><path d="M32.486.997v14m19-14v14m16.5-10.5h-53m9.5 12.5v48m12-48v48m12-48v48m12-48v48m-49 6v9m61.5-2.5h-62m61.5-6.5v9m-44.99-57.5V38.51a2.985 2.985 0 002.988 2.987h0a2.985 2.985 0 002.988-2.987V22.497a2.985 2.985 0 00-2.988-2.987h0a2.985 2.985 0 00-2.988 2.987zm24 0V38.51a2.985 2.985 0 002.988 2.987h0a2.985 2.985 0 002.988-2.987V22.497a2.985 2.985 0 00-2.988-2.987h0a2.985 2.985 0 00-2.988 2.987zm-41.51-8h-9m2.5 53.5v-54m6.5 53.5h-9m14.662 6.863l-3.462 3.137 3.461 3.133m52.671-6.27l3.461 3.133-3.461 3.133M.371 63.347L3.499 66.8l3.128-3.453M.371 18.68l3.128-3.467 3.128 3.467"/></g></svg>