<svg xmlns="http://www.w3.org/2000/svg" width="240" height="67"><path data-name="Контур 1" d="M0 8v18l18.6-8.4V0z" fill="#01008d"/><path data-name="Контур 2" d="M0 28.7v17.9l18.6-8.4V20.6z" fill="#01008d"/><path data-name="Контур 3" d="M0 49.1V67l18.6-8.4V41.1z" fill="#01008d"/><path data-name="Контур 4" d="M37.1 8.1V26l-18.5-8.4V0z" fill="#0052b6"/><path data-name="Контур 5" d="M37.1 28.7v17.9l-18.5-8.4V20.7z" fill="#0052b6"/><path data-name="Контур 6" d="M37.1 49.1V67l-18.5-8.4V41.1z" fill="#0052b6"/><path data-name="Контур 7" d="M0 8v18l18.6-8.4V0z" fill="#01008d"/><path data-name="Контур 8" d="M0 28.7v17.9l18.6-8.4V20.6z" fill="#01008d"/><path data-name="Контур 9" d="M0 49.1V67l18.6-8.4V41.1z" fill="#01008d"/><path data-name="Контур 10" d="M37.1 8.1V26l-18.5-8.4V0z" fill="#0052b6"/><path data-name="Контур 11" d="M37.1 28.7v17.9l-18.5-8.4V20.7z" fill="#0052b6"/><path data-name="Контур 12" d="M37.1 49.1V67l-18.5-8.4V41.1z" fill="#0052b6"/><path data-name="Контур 13" d="M221 56.1a11.076 11.076 0 01-1.9-.2c-.5-.1-1-.3-1.4-.4v-1.3h.1a3.479 3.479 0 001.5.7 4.973 4.973 0 001.6.3 2.861 2.861 0 001.7-.4.961.961 0 00.6-.9.779.779 0 00-.3-.7 1.884 1.884 0 00-.9-.4c-.3-.1-.6-.1-.8-.2a4.4 4.4 0 01-1-.2 9.439 9.439 0 01-.9-.3 1.612 1.612 0 01-.7-.4 2.652 2.652 0 01-.5-.6 1.884 1.884 0 01-.2-.8 1.936 1.936 0 011-1.6 4.265 4.265 0 012.4-.6 8.083 8.083 0 011.6.1 5.732 5.732 0 011.4.4v1.2h-.1a6.658 6.658 0 00-1.2-.6 4.145 4.145 0 00-1.6-.2 3.339 3.339 0 00-1.5.3.961.961 0 00-.6.9 1.136 1.136 0 00.3.8 1.88 1.88 0 001 .4c.3.1.6.1 1 .2s.7.1 1 .2a3.493 3.493 0 011.5.7 1.656 1.656 0 01.5 1.2 2.92 2.92 0 01-.2.9 2.336 2.336 0 01-.7.7 3.7 3.7 0 01-1.1.5 3.507 3.507 0 01-1.6.3m-8.4-.1v-6.8h-3.4v-.9h8.1v.9h-3.4V56zm-7.2.1a11.076 11.076 0 01-1.9-.2c-.5-.1-1-.3-1.4-.4v-1.3h.1a3.479 3.479 0 001.5.7 4.973 4.973 0 001.6.3 2.861 2.861 0 001.7-.4.961.961 0 00.6-.9.779.779 0 00-.3-.7 1.884 1.884 0 00-.9-.4c-.3-.1-.6-.1-.8-.2a4.4 4.4 0 01-1-.2 9.439 9.439 0 01-.9-.3 1.612 1.612 0 01-.7-.4 2.652 2.652 0 01-.5-.6 1.884 1.884 0 01-.2-.8 1.936 1.936 0 011-1.6 4.265 4.265 0 012.4-.6 8.083 8.083 0 011.6.1 5.732 5.732 0 011.4.4v1.2h-.1a6.658 6.658 0 00-1.2-.6 4.145 4.145 0 00-1.6-.2 3.339 3.339 0 00-1.5.3.961.961 0 00-.6.9 1.136 1.136 0 00.3.8 1.88 1.88 0 001 .4c.3.1.6.1 1 .2s.7.1 1 .2a3.493 3.493 0 011.5.7 1.656 1.656 0 01.5 1.2 2.92 2.92 0 01-.2.9 2.336 2.336 0 01-.7.7 3.7 3.7 0 01-1.1.5 4.146 4.146 0 01-1.6.3zm-4.5-.1H197v-.8h1.3v-6.1H197v-.8h3.9v.8h-1.3v6.1h1.3zm-6.3-3.9a4.438 4.438 0 00-.2-1.3 2.4 2.4 0 00-1.6-1.6 4.325 4.325 0 00-2.6 0 2.4 2.4 0 00-1.6 1.6 5.066 5.066 0 00-.2 1.3 3.2 3.2 0 00.8 2.3 3.3 3.3 0 002.2.8 3.113 3.113 0 002.2-.8 2.644 2.644 0 001-2.3zm.1-2.9a3.449 3.449 0 01.9 1.2 4.967 4.967 0 010 3.4 3.805 3.805 0 01-.9 1.3 3.923 3.923 0 01-1.4.8 5.55 5.55 0 01-3.6 0 3.924 3.924 0 01-1.4-.8 3.045 3.045 0 01-.9-1.3 4.967 4.967 0 010-3.4 3.805 3.805 0 01.9-1.3 6.376 6.376 0 011.4-.8 5.23 5.23 0 011.8-.3 4.844 4.844 0 011.8.3 5.649 5.649 0 011.4.9zm-9.1 6.8h-1.3v-3.8h-4.6V56h-1.3v-7.7h1.3v3h4.6v-3h1.3zM172 56h-1.5l-4.4-6.6V56h-1.2v-7.7h1.9l4 6.1v-6.1h1.2zm-10.1-3.9a4.438 4.438 0 00-.2-1.3 2.4 2.4 0 00-1.6-1.6 4.325 4.325 0 00-2.6 0 2.4 2.4 0 00-1.6 1.6 5.066 5.066 0 00-.2 1.3 3.2 3.2 0 00.8 2.3 3.3 3.3 0 002.2.8 3.113 3.113 0 002.2-.8 2.419 2.419 0 001-2.3zm.2-2.9a3.449 3.449 0 01.9 1.2 4.967 4.967 0 010 3.4 3.805 3.805 0 01-.9 1.3 3.923 3.923 0 01-1.4.8 5.55 5.55 0 01-3.6 0 3.924 3.924 0 01-1.4-.8 3.045 3.045 0 01-.9-1.3 4.967 4.967 0 010-3.4 3.805 3.805 0 01.9-1.3 6.376 6.376 0 011.4-.8 5.23 5.23 0 011.8-.3 4.844 4.844 0 011.8.3 8.51 8.51 0 011.4.9zm-8.7 6.8h-3.9v-.8h1.3v-6.1h-1.3v-.8h3.9v.8h-1.3v6.1h1.3zm-9.2 0v-6.8h-3.4v-.9h8.1v.9h-3.4V56zm-6.8.1a4.844 4.844 0 01-1.8-.3 3.223 3.223 0 01-1.4-.8 2.73 2.73 0 01-.9-1.2 4.967 4.967 0 010-3.4 2.73 2.73 0 01.9-1.2 6.376 6.376 0 011.4-.8 5.23 5.23 0 011.8-.3 2.483 2.483 0 01.9.1c.3 0 .6.1.8.1a6.373 6.373 0 00.7.2c.2.1.5.2.7.3V50h-.1a2.186 2.186 0 00-.5-.3 4.875 4.875 0 00-.7-.3c-.3-.1-.5-.2-.8-.3a3.083 3.083 0 00-1-.1 5.019 5.019 0 00-1.2.2 2.075 2.075 0 00-1 .6 3.591 3.591 0 00-.7 1 2.745 2.745 0 00-.2 1.3 4.438 4.438 0 00.2 1.3 3.591 3.591 0 00.7 1 3.328 3.328 0 001 .6 5.019 5.019 0 001.2.2 4.1 4.1 0 001.1-.1l.9-.3a3.33 3.33 0 00.6-.3 1.38 1.38 0 00.4-.3h.1v1.2a1.421 1.421 0 01-.6.2 6.373 6.373 0 01-.7.2c-.3.1-.6.1-.8.2a2.787 2.787 0 01-1 .1zm-9.4 0a6.052 6.052 0 01-1.5-.2 3.7 3.7 0 01-1.1-.5 2.286 2.286 0 01-.7-1 5.212 5.212 0 01-.2-1.4v-4.8h1.3V53a2.483 2.483 0 00.1.9 3.329 3.329 0 00.3.6 1.794 1.794 0 00.7.5 3.125 3.125 0 002.2 0 2.177 2.177 0 00.8-.5.864.864 0 00.3-.6 2.219 2.219 0 00.1-.9v-4.8h1.3V53a5.9 5.9 0 01-.2 1.4 2.286 2.286 0 01-.7 1 3.7 3.7 0 01-1.1.5 4.145 4.145 0 01-1.6.2zm-7.2-5.6a1.421 1.421 0 00-.2-.6 1 1 0 00-.5-.4 1.445 1.445 0 00-.7-.2c-.3 0-.6-.1-.9-.1h-1.3v2.9h1.2a3.083 3.083 0 001-.1 6.89 6.89 0 00.8-.3 1 1 0 00.4-.5 1.854 1.854 0 00.2-.7zm2.9 5.5H122l-3.2-3h-1.5v3H116v-7.7h2.6a5.313 5.313 0 011.4.1 3.545 3.545 0 011.1.3 2.7 2.7 0 01.8.7 1.689 1.689 0 01.3 1 1.816 1.816 0 01-.6 1.4 2.751 2.751 0 01-1.5.8zm-13.5 0v-6.8h-3.4v-.9h8.1v.9h-3.4V56zm-7.3.1a11.076 11.076 0 01-1.9-.2c-.5-.1-1-.3-1.4-.4v-1.3h.1a3.479 3.479 0 001.5.7 4.973 4.973 0 001.6.3 2.861 2.861 0 001.7-.4.961.961 0 00.6-.9.779.779 0 00-.3-.7 1.884 1.884 0 00-.9-.4c-.3-.1-.6-.1-.8-.2a4.4 4.4 0 01-1-.2 9.44 9.44 0 01-.9-.3 1.612 1.612 0 01-.7-.4 2.651 2.651 0 01-.5-.6 1.884 1.884 0 01-.2-.8 1.936 1.936 0 011-1.6 4.265 4.265 0 012.4-.6 8.083 8.083 0 011.6.1 5.732 5.732 0 011.4.4v1.2h-.2a6.658 6.658 0 00-1.2-.6 4.145 4.145 0 00-1.6-.2 3.339 3.339 0 00-1.5.3.961.961 0 00-.6.9 1.135 1.135 0 00.3.8 1.88 1.88 0 001 .4c.3.1.6.1 1 .2s.7.1 1 .2a3.493 3.493 0 011.5.7 1.656 1.656 0 01.5 1.2 2.92 2.92 0 01-.2.9 2.336 2.336 0 01-.7.7 3.7 3.7 0 01-1.1.5 3.34 3.34 0 01-1.5.3zm-4.8-.1h-1.5l-4.4-6.6V56H91v-7.7h1.9l4 6.1v-6.1h1.2zm-10-3.9a4.438 4.438 0 00-.2-1.3 2.4 2.4 0 00-1.6-1.6 4.325 4.325 0 00-2.6 0 2.4 2.4 0 00-1.6 1.6 5.283 5.283 0 00-.1 1.3 3.2 3.2 0 00.8 2.3 3.3 3.3 0 002.2.8 3.113 3.113 0 002.2-.8 2.869 2.869 0 00.9-2.3zm.1-2.9a3.449 3.449 0 01.9 1.2 4.967 4.967 0 010 3.4 3.805 3.805 0 01-.9 1.3 3.924 3.924 0 01-1.4.8 5.55 5.55 0 01-3.6 0 3.924 3.924 0 01-1.4-.8 3.045 3.045 0 01-.9-1.3 4.967 4.967 0 010-3.4 3.805 3.805 0 01.9-1.3 6.376 6.376 0 011.4-.8 9.722 9.722 0 011.8-.1 4.844 4.844 0 011.8.3 2.649 2.649 0 011.4.7zm-11.4 6.9a4.844 4.844 0 01-1.8-.3 3.224 3.224 0 01-1.4-.8 2.73 2.73 0 01-.9-1.2 4.967 4.967 0 010-3.4 2.73 2.73 0 01.9-1.2 6.376 6.376 0 011.4-.8 5.23 5.23 0 011.8-.3 2.483 2.483 0 01.9.1c.3 0 .6.1.8.1a6.374 6.374 0 00.7.2c.2.1.5.2.7.3V50h-.1a2.186 2.186 0 00-.5-.3 4.875 4.875 0 00-.7-.3c-.3-.1-.5-.2-.8-.3a3.083 3.083 0 00-1-.1 5.019 5.019 0 00-1.2.2 2.075 2.075 0 00-1 .6 3.591 3.591 0 00-.7 1 2.745 2.745 0 00-.2 1.3 4.438 4.438 0 00.2 1.3 3.592 3.592 0 00.7 1 3.328 3.328 0 001 .6 2.537 2.537 0 001.2.2 4.1 4.1 0 001.1-.1l.9-.3a3.329 3.329 0 00.6-.3 1.38 1.38 0 00.4-.3h.1v1.2a1.421 1.421 0 01-.6.2 6.374 6.374 0 01-.7.2c-.3.1-.6.1-.8.2a3.083 3.083 0 01-1 .1zm150.1-34.9a2.767 2.767 0 00-.5-1.6 2.84 2.84 0 00-1.5-1 4.671 4.671 0 00-1.7-.3c-.6 0-1.4-.1-2.3-.1h-2.7v6.7h2.3a23.283 23.283 0 002.9-.2 3.971 3.971 0 002-.7 4.263 4.263 0 001.2-1.1 3.984 3.984 0 00.3-1.7zM240 38.4h-9.9l-9-9.1h-2.9v9.1H210V13.7h13a31.8 31.8 0 014.7.3 11.357 11.357 0 013.7 1.1 8.932 8.932 0 012.8 2.1 5.183 5.183 0 011 3.3 6.519 6.519 0 01-1.7 4.6 11.174 11.174 0 01-4.5 2.8zM196.8 26a10.824 10.824 0 00-.6-3.8 7.6 7.6 0 00-1.6-2.6 6.08 6.08 0 00-2.4-1.5 8.423 8.423 0 00-2.7-.4 7.664 7.664 0 00-2.7.4 7.91 7.91 0 00-2.4 1.5 6.075 6.075 0 00-1.6 2.6 10.825 10.825 0 00-.6 3.8 10.444 10.444 0 00.6 3.8 7.16 7.16 0 001.6 2.5 6.08 6.08 0 002.4 1.5 8.94 8.94 0 005.6-.1 5.131 5.131 0 002.3-1.5 8.214 8.214 0 001.6-2.5 11.754 11.754 0 00.5-3.7zm8.4 0a11.473 11.473 0 01-4.2 9.4c-2.8 2.3-6.6 3.4-11.5 3.4s-8.7-1.2-11.5-3.5a11.607 11.607 0 01-4.2-9.4 11.473 11.473 0 014.2-9.4c2.8-2.3 6.6-3.5 11.5-3.5s8.7 1.2 11.5 3.4a12.149 12.149 0 014.2 9.6zm-50.6 12.4v-20H145v-4.7h27.3v4.7h-9.6v20zm-22 .5c-4.9 0-8.7-1.1-11.6-3.4-2.9-2.2-4.3-5.4-4.3-9.5a11.4 11.4 0 014.3-9.4c2.9-2.3 6.7-3.5 11.6-3.5a34.912 34.912 0 013.5.2c1 .1 2 .3 3 .5.7.2 1.5.4 2.4.7s1.6.5 2.1.7v5.9h-.8a9.878 9.878 0 00-1.5-.9c-.6-.4-1.3-.7-2-1.1a10.639 10.639 0 00-2.5-.9 13.5 13.5 0 00-2.8-.4 10.377 10.377 0 00-3.2.4 8.483 8.483 0 00-2.8 1.5 6.7 6.7 0 00-2 2.6 8.873 8.873 0 00-.8 3.8 9.346 9.346 0 00.8 3.9 6.41 6.41 0 002.1 2.5 7.19 7.19 0 002.8 1.3 11 11 0 003.1.4 10.55 10.55 0 003.1-.4 23.03 23.03 0 002.5-.9 16.451 16.451 0 001.9-1 15.142 15.142 0 011.4-.9h.7v5.8c-.6.2-1.3.4-2.1.7a21.719 21.719 0 01-2.4.7c-1 .2-2 .4-2.8.5a35.746 35.746 0 01-3.7.2zm-41.5-.5V13.7H113v4.7H99.3v4.3H112v4.7H99.3v6.2h13.8v4.7h-22zm-2.9-24.7L77 38.4h-8.5L57.3 13.7h8.4l7.1 16.8 7.1-16.8z" fill="#1d1d1b"/></svg>