<svg xmlns="http://www.w3.org/2000/svg" width="78.01" height="60.123" viewBox="0 0 78.01 60.123">
  <g id="feature-icon" transform="translate(-18.995 1423.115)">
    <path id="path226" d="M58-1365a28.012,28.012,0,0,1-28-28,28.012,28.012,0,0,1,28-28,28.012,28.012,0,0,1,28,28A28.012,28.012,0,0,1,58-1365Z" fill="none" stroke="#669eeb" stroke-miterlimit="79.84" stroke-width="2" fill-rule="evenodd"/>
    <path id="path228" d="M58-1375.49A3.512,3.512,0,0,1,54.489-1379a3.523,3.523,0,0,1,3.511-3.52,3.523,3.523,0,0,1,3.511,3.52A3.512,3.512,0,0,1,58-1375.49Z" fill="none" stroke="#669eeb" stroke-miterlimit="79.84" stroke-width="1" fill-rule="evenodd"/>
    <path id="path230" d="M56.2-1385.49c-1.035-8.413-2.7-14.547-2.7-22.173,0-2.893,1.736-4.8,4.539-4.84,2.8.04,4.5,1.947,4.5,4.84,0,7.627-1.668,13.76-2.7,22.173Z" fill="none" stroke="#669eeb" stroke-miterlimit="79.84" stroke-width="1" fill-rule="evenodd"/>
    <path id="path232" d="M58-1369.5A23.5,23.5,0,0,1,34.5-1393,23.513,23.513,0,0,1,58-1416.5,23.513,23.513,0,0,1,81.5-1393,23.5,23.5,0,0,1,58-1369.5Z" fill="none" stroke="#669eeb" stroke-miterlimit="79.84" stroke-width="1" fill-rule="evenodd"/>
    <path id="path234" d="M81.049-1364.01a1.506,1.506,0,0,1,.155-2.12A35.432,35.432,0,0,0,93.505-1393a35.428,35.428,0,0,0-12.3-26.867,1.506,1.506,0,0,1-.155-2.12,1.508,1.508,0,0,1,2.116-.147A38.4,38.4,0,0,1,96.505-1393a38.406,38.406,0,0,1-13.34,29.133,1.5,1.5,0,0,1-2.116-.147Z" fill="none" stroke="#669eeb" stroke-linejoin="bevel" stroke-miterlimit="79.84" stroke-width="1" fill-rule="evenodd"/>
    <path id="path236" d="M32.832-1363.863A38.4,38.4,0,0,1,19.495-1393a38.4,38.4,0,0,1,13.337-29.133,1.508,1.508,0,0,1,2.116.147,1.506,1.506,0,0,1-.155,2.12A35.425,35.425,0,0,0,22.495-1393a35.43,35.43,0,0,0,12.3,26.867,1.506,1.506,0,0,1,.155,2.12A1.5,1.5,0,0,1,32.832-1363.863Z" fill="none" stroke="#669eeb" stroke-linejoin="bevel" stroke-miterlimit="79.84" stroke-width="1" fill-rule="evenodd"/>
  </g>
</svg>
