<svg xmlns="http://www.w3.org/2000/svg" width="63.999" height="66" viewBox="0 0 63.999 66">
  <g id="feature-icon7" transform="translate(-26.001 1229.997)">
    <path id="path352" d="M74-1208l0-21H27v64H74l0-23" fill="none" stroke="#669eeb" stroke-miterlimit="79.84" stroke-width="2" fill-rule="evenodd"/>
    <path id="path354" d="M65.047-1187.7l-12.661-21.476c-1.04-1.765-2.731-1.765-3.771,0L35.952-1187.7c-1.04,1.765-.221,3.2,1.828,3.2H63.219C65.268-1184.5,66.087-1185.933,65.047-1187.7Z" fill="none" stroke="#669eeb" stroke-miterlimit="79.84" stroke-width="1.007" fill-rule="evenodd"/>
    <path id="path356" d="M51.675-1201.084l-3.749,5.572h3.749l-3.749,5.571" fill="none" stroke="#669eeb" stroke-miterlimit="79.84" stroke-width="1.007" fill-rule="evenodd"/>
    <path id="path358" d="M80-1230v21" fill="none" stroke="#669eeb" stroke-miterlimit="79.84" stroke-width="2" fill-rule="evenodd"/>
    <path id="path360" d="M86-1230v21" fill="none" stroke="#669eeb" stroke-miterlimit="79.84" stroke-width="2" fill-rule="evenodd"/>
    <path id="path362" d="M74-1209H89v22H74" fill="none" stroke="#669eeb" stroke-miterlimit="79.84" stroke-width="2" fill-rule="evenodd"/>
    <path id="path364" d="M73.5-1211v26" fill="none" stroke="#669eeb" stroke-miterlimit="79.84" stroke-width="1" fill-rule="evenodd"/>
    <path id="path366" d="M80-1164v-22" fill="none" stroke="#669eeb" stroke-miterlimit="79.84" stroke-width="2" fill-rule="evenodd"/>
    <path id="path368" d="M86-1164v-22" fill="none" stroke="#669eeb" stroke-miterlimit="79.84" stroke-width="2" fill-rule="evenodd"/>
  </g>
</svg>
