<svg xmlns="http://www.w3.org/2000/svg" width="55.981" height="74" viewBox="0 0 55.981 74">
  <g id="feature-icon8" transform="translate(-124.018 1237.997)">
    <path id="path276" d="M152.344-1234.994h16.032L173-1231.46V-1165H134v-52.447Z" fill="none" stroke="#669eeb" stroke-miterlimit="79.84" stroke-width="2" fill-rule="evenodd"/>
    <path id="path278" d="M179.5-1193.493a26.339,26.339,0,0,1-6.469,17.177" fill="none" stroke="#669eeb" stroke-miterlimit="79.84" stroke-width="1" fill-rule="evenodd"/>
    <path id="path280" d="M133.47-1173.88a25.916,25.916,0,0,1-8.952-19.615,25.919,25.919,0,0,1,8.752-19.441" fill="none" stroke="#669eeb" stroke-miterlimit="79.84" stroke-width="1" fill-rule="evenodd"/>
    <path id="path282" d="M173.213-1210.541a25.959,25.959,0,0,1,3.352,5.664" fill="none" stroke="#669eeb" stroke-miterlimit="79.84" stroke-width="1" fill-rule="evenodd"/>
    <path id="path284" d="M140.5-1211.5v8.009h8v-8.009Z" fill="none" stroke="#669eeb" stroke-miterlimit="79.84" stroke-width="1" fill-rule="evenodd"/>
    <path id="path286" d="M140.5-1181.5v8.009h8v-8.009Z" fill="none" stroke="#669eeb" stroke-miterlimit="79.84" stroke-width="1" fill-rule="evenodd"/>
    <path id="path288" d="M179.5-1193v-45" fill="none" stroke="#669eeb" stroke-miterlimit="79.84" stroke-width="1" fill-rule="evenodd"/>
    <path id="path290" d="M176.5-1193v-45" fill="none" stroke="#669eeb" stroke-miterlimit="79.84" stroke-width="1" fill-rule="evenodd"/>
    <path id="path292" d="M150.5-1193.482a2.01,2.01,0,0,1-2-2.012,2.01,2.01,0,0,1,2-2.012,2.01,2.01,0,0,1,2,2.012A2.01,2.01,0,0,1,150.5-1193.482Z" fill="none" stroke="#669eeb" stroke-miterlimit="79.84" stroke-width="1" fill-rule="evenodd"/>
    <path id="path294" d="M154.5-1225.482a2.01,2.01,0,0,1-2-2.012,2.01,2.01,0,0,1,2-2.012,2.01,2.01,0,0,1,2,2.012A2.01,2.01,0,0,1,154.5-1225.482Z" fill="none" stroke="#669eeb" stroke-miterlimit="79.84" stroke-width="1" fill-rule="evenodd"/>
    <path id="path296" d="M133.334-1178.35a22.609,22.609,0,0,1-5.825-15.144,22.6,22.6,0,0,1,5.643-14.939" fill="none" stroke="#669eeb" stroke-miterlimit="79.84" stroke-width="1" fill-rule="evenodd"/>
    <path id="path298" d="M173.177-1205.269a22.5,22.5,0,0,1,3.316,11.775A22.488,22.488,0,0,1,173-1181.441" fill="none" stroke="#669eeb" stroke-miterlimit="79.84" stroke-width="1" fill-rule="evenodd"/>
    <path id="path300" d="M133.336-1183.264a19.874,19.874,0,0,1-2.817-10.231A19.872,19.872,0,0,1,133.2-1203.5" fill="none" stroke="#669eeb" stroke-miterlimit="79.84" stroke-width="1" fill-rule="evenodd"/>
  </g>
</svg>
