<svg xmlns="http://www.w3.org/2000/svg" width="72.986" height="80.997" viewBox="0 0 72.986 80.997">
  <g id="feature-icon2" transform="translate(-112.014 1433.997)">
    <path id="path183" d="M124-1419v52h60v-52Z" fill="none" stroke="#669eeb" stroke-miterlimit="79.84" stroke-width="2" fill-rule="evenodd"/>
    <path id="path185" d="M126.948-1419l.052-14h54l-.152,14" fill="none" stroke="#669eeb" stroke-miterlimit="79.84" stroke-width="2" fill-rule="evenodd"/>
    <path id="path187" d="M144.5-1433v14" fill="none" stroke="#669eeb" stroke-miterlimit="79.84" stroke-width="1" fill-rule="evenodd"/>
    <path id="path189" d="M163.5-1433v14" fill="none" stroke="#669eeb" stroke-miterlimit="79.84" stroke-width="1" fill-rule="evenodd"/>
    <path id="path191" d="M180-1429.5H127" fill="none" stroke="#669eeb" stroke-miterlimit="79.84" stroke-width="1" fill-rule="evenodd"/>
    <path id="path193" d="M136.5-1417v48" fill="none" stroke="#669eeb" stroke-miterlimit="79.84" stroke-width="1" fill-rule="evenodd"/>
    <path id="path195" d="M148.5-1417v48" fill="none" stroke="#669eeb" stroke-miterlimit="79.84" stroke-width="1" fill-rule="evenodd"/>
    <path id="path197" d="M160.5-1417v48" fill="none" stroke="#669eeb" stroke-miterlimit="79.84" stroke-width="1" fill-rule="evenodd"/>
    <path id="path199" d="M172.5-1417v48" fill="none" stroke="#669eeb" stroke-miterlimit="79.84" stroke-width="1" fill-rule="evenodd"/>
    <path id="path201" d="M123.5-1363v9" fill="none" stroke="#669eeb" stroke-miterlimit="79.84" stroke-width="1" fill-rule="evenodd"/>
    <path id="path203" d="M185-1356.5H123" fill="none" stroke="#669eeb" stroke-miterlimit="79.84" stroke-width="1" fill-rule="evenodd"/>
    <path id="path205" d="M184.5-1363v9" fill="none" stroke="#669eeb" stroke-miterlimit="79.84" stroke-width="1" fill-rule="evenodd"/>
    <path id="path207" d="M139.51-1411.5v16.013a2.985,2.985,0,0,0,2.988,2.987h0a2.985,2.985,0,0,0,2.988-2.987V-1411.5a2.985,2.985,0,0,0-2.988-2.987h0A2.985,2.985,0,0,0,139.51-1411.5Z" fill="none" stroke="#669eeb" stroke-miterlimit="79.84" stroke-width="1" fill-rule="evenodd"/>
    <path id="path209" d="M163.51-1411.5v16.013a2.985,2.985,0,0,0,2.988,2.987h0a2.985,2.985,0,0,0,2.988-2.987V-1411.5a2.985,2.985,0,0,0-2.988-2.987h0A2.985,2.985,0,0,0,163.51-1411.5Z" fill="none" stroke="#669eeb" stroke-miterlimit="79.84" stroke-width="1" fill-rule="evenodd"/>
    <path id="path211" d="M122-1419.5h-9" fill="none" stroke="#669eeb" stroke-miterlimit="79.84" stroke-width="1" fill-rule="evenodd"/>
    <path id="path213" d="M115.5-1366v-54" fill="none" stroke="#669eeb" stroke-miterlimit="79.84" stroke-width="1" fill-rule="evenodd"/>
    <path id="path215" d="M122-1366.5h-9" fill="none" stroke="#669eeb" stroke-miterlimit="79.84" stroke-width="1" fill-rule="evenodd"/>
    <path id="path217" d="M127.662-1359.637,124.2-1356.5l3.461,3.133" fill="none" stroke="#669eeb" stroke-miterlimit="79.84" stroke-width="1" fill-rule="evenodd"/>
    <path id="path219" d="M180.332-1359.637l3.461,3.133-3.461,3.133" fill="none" stroke="#669eeb" stroke-miterlimit="79.84" stroke-width="1" fill-rule="evenodd"/>
    <path id="path221" d="M112.385-1370.65l3.128,3.453,3.128-3.453" fill="none" stroke="#669eeb" stroke-miterlimit="79.84" stroke-width="1" fill-rule="evenodd"/>
    <path id="path223" d="M112.385-1415.317l3.128-3.467,3.128,3.467" fill="none" stroke="#669eeb" stroke-miterlimit="79.84" stroke-width="1" fill-rule="evenodd"/>
  </g>
</svg>
