<svg xmlns="http://www.w3.org/2000/svg" width="72.999" height="64.5" viewBox="0 0 72.999 64.5">
  <g id="feature-icon6" transform="translate(-216.001 1328.996)">
    <path id="path303" d="M241.5-1318.5h7v20h-7" fill="none" stroke="#669eeb" stroke-miterlimit="79.84" stroke-width="1" fill-rule="evenodd"/>
    <path id="path305" d="M222.5-1292.5v-29h19v29" fill="none" stroke="#669eeb" stroke-miterlimit="79.84" stroke-width="1" fill-rule="evenodd"/>
    <path id="path307" d="M248.5-1315.5h8" fill="none" stroke="#669eeb" stroke-miterlimit="79.84" stroke-width="1" fill-rule="evenodd"/>
    <path id="path309" d="M256.5-1298.5h7v-20h-7Z" fill="none" stroke="#669eeb" stroke-miterlimit="79.84" stroke-width="1" fill-rule="evenodd"/>
    <path id="path311" d="M248.5-1301.5h8" fill="none" stroke="#669eeb" stroke-miterlimit="79.84" stroke-width="1" fill-rule="evenodd"/>
    <path id="path313" d="M268.5-1315.5v8" fill="none" stroke="#669eeb" stroke-miterlimit="79.84" stroke-width="1" fill-rule="evenodd"/>
    <path id="path315" d="M277.5-1315.5v14" fill="none" stroke="#669eeb" stroke-miterlimit="79.84" stroke-width="1" fill-rule="evenodd"/>
    <path id="path317" d="M273.5-1301.5h11l3-3v-8l-3-3h-21" fill="none" stroke="#669eeb" stroke-miterlimit="79.84" stroke-width="1" fill-rule="evenodd"/>
    <path id="path319" d="M263.5-1307.5h10v9h-10" fill="none" stroke="#669eeb" stroke-miterlimit="79.84" stroke-width="1" fill-rule="evenodd"/>
    <path id="path321" d="M222.525-1302.025A14.467,14.467,0,0,1,217.5-1313a14.5,14.5,0,0,1,14.5-14.5,14.511,14.511,0,0,1,13.4,8.961" fill="none" stroke="#669eeb" stroke-miterlimit="79.84" stroke-width="1" fill-rule="evenodd"/>
    <path id="path323" d="M226.51-1313A5.5,5.5,0,0,1,232-1318.5a5.5,5.5,0,0,1,5.489,5.507A5.5,5.5,0,0,1,232-1307.49,5.5,5.5,0,0,1,226.51-1313Z" fill="none" stroke="#669eeb" stroke-miterlimit="79.84" stroke-width="1" fill-rule="evenodd"/>
    <path id="path325" d="M241.5-1289.5h7v20h-7" fill="none" stroke="#669eeb" stroke-miterlimit="79.84" stroke-width="1" fill-rule="evenodd"/>
    <path id="path327" d="M222.5-1293v27h19v-28" fill="none" stroke="#669eeb" stroke-miterlimit="79.84" stroke-width="1" fill-rule="evenodd"/>
    <path id="path329" d="M248.5-1286.5h8" fill="none" stroke="#669eeb" stroke-miterlimit="79.84" stroke-width="1" fill-rule="evenodd"/>
    <path id="path331" d="M256.5-1269.5h7v-20h-7Z" fill="none" stroke="#669eeb" stroke-miterlimit="79.84" stroke-width="1" fill-rule="evenodd"/>
    <path id="path333" d="M248.5-1272.5h8" fill="none" stroke="#669eeb" stroke-miterlimit="79.84" stroke-width="1" fill-rule="evenodd"/>
    <path id="path335" d="M268.5-1286.5v8" fill="none" stroke="#669eeb" stroke-miterlimit="79.84" stroke-width="1" fill-rule="evenodd"/>
    <path id="path337" d="M277.5-1286.5v14" fill="none" stroke="#669eeb" stroke-miterlimit="79.84" stroke-width="1" fill-rule="evenodd"/>
    <path id="path339" d="M273.5-1272.5h11l3-3v-8l-3-3h-21" fill="none" stroke="#669eeb" stroke-miterlimit="79.84" stroke-width="1" fill-rule="evenodd"/>
    <path id="path341" d="M263.5-1278.5h10v9h-10" fill="none" stroke="#669eeb" stroke-miterlimit="79.84" stroke-width="1" fill-rule="evenodd"/>
    <path id="path343" d="M241.434-1295a14.537,14.537,0,0,1,3.937,5.4" fill="none" stroke="#669eeb" stroke-miterlimit="79.84" stroke-width="1" fill-rule="evenodd"/>
    <path id="path345" d="M222.425-1273.113A14.463,14.463,0,0,1,217.5-1284a14.467,14.467,0,0,1,4.961-10.917" fill="none" stroke="#669eeb" stroke-miterlimit="79.84" stroke-width="1" fill-rule="evenodd"/>
    <path id="path347" d="M226.51-1284A5.5,5.5,0,0,1,232-1289.5a5.5,5.5,0,0,1,5.489,5.507A5.5,5.5,0,0,1,232-1278.49,5.5,5.5,0,0,1,226.51-1284Z" fill="none" stroke="#669eeb" stroke-miterlimit="79.84" stroke-width="1" fill-rule="evenodd"/>
    <path id="path349" d="M222-1265.5v-7.325A14.96,14.96,0,0,1,217-1284a14.962,14.962,0,0,1,5-11.173v-6.649A14.961,14.961,0,0,1,217-1313a15,15,0,0,1,15-15,15.011,15.011,0,0,1,13.748,9H249v3h7v-3h8v3h20.707L288-1312.7v8.415L284.706-1301H274v3H256v-3h-7v3h-7v2.825a15.073,15.073,0,0,1,3.747,5.175H249v3h7v-3h8v3h20.707L288-1283.7v8.415L284.706-1272H274v3H256v-3h-7v3h-7v3.5Z" fill="none" stroke="#669eeb" stroke-miterlimit="79.84" stroke-width="2" fill-rule="evenodd"/>
  </g>
</svg>
