<svg xmlns="http://www.w3.org/2000/svg" width="52.996" height="79.999" viewBox="0 0 52.996 79.999">
  <g id="feature-icon5" transform="translate(-127.001 1335.997)">
    <path id="path83" d="M128-1335v78h51v-78Z" fill="none" stroke="#669eeb" stroke-miterlimit="79.84" stroke-width="2" fill-rule="evenodd"/>
    <path id="path85" d="M154.5-1334v76" fill="none" stroke="#669eeb" stroke-miterlimit="79.84" stroke-width="1" fill-rule="evenodd"/>
    <path id="path87" d="M137.494-1324.491v13.988a4.007,4.007,0,0,0,4.005,4.005h0a4.007,4.007,0,0,0,4.005-4.005v-13.988a4.007,4.007,0,0,0-4.005-4.005h0a4.007,4.007,0,0,0-4.005,4.005Z" fill="none" stroke="#669eeb" stroke-miterlimit="79.84" stroke-width="1" fill-rule="evenodd"/>
    <path id="path89" d="M137.494-1283.491v13.988a4.007,4.007,0,0,0,4.005,4.005h0a4.007,4.007,0,0,0,4.005-4.005v-13.988a4.007,4.007,0,0,0-4.005-4.005h0a4.007,4.007,0,0,0-4.005,4.005Z" fill="none" stroke="#669eeb" stroke-miterlimit="79.84" stroke-width="1" fill-rule="evenodd"/>
    <path id="path91" d="M162.494-1324.491v13.988a4.007,4.007,0,0,0,4.005,4.005h0a4.007,4.007,0,0,0,4.005-4.005v-13.988a4.007,4.007,0,0,0-4.005-4.005h0a4.007,4.007,0,0,0-4.005,4.005Z" fill="none" stroke="#669eeb" stroke-miterlimit="79.84" stroke-width="1" fill-rule="evenodd"/>
    <path id="path93" d="M162.494-1283.491v13.988a4.007,4.007,0,0,0,4.005,4.005h0a4.007,4.007,0,0,0,4.005-4.005v-13.988a4.007,4.007,0,0,0-4.005-4.005h0a4.007,4.007,0,0,0-4.005,4.005Z" fill="none" stroke="#669eeb" stroke-miterlimit="79.84" stroke-width="1" fill-rule="evenodd"/>
    <path id="path95" d="M151.5-1331v70" fill="none" stroke="#669eeb" stroke-miterlimit="79.84" stroke-width="1" fill-rule="evenodd"/>
    <path id="path97" d="M131.5-1331v70" fill="none" stroke="#669eeb" stroke-miterlimit="79.84" stroke-width="1" fill-rule="evenodd"/>
    <path id="path99" d="M151-1299.5h-2.5v8H151" fill="none" stroke="#669eeb" stroke-miterlimit="79.84" stroke-width="1" fill-rule="evenodd"/>
    <path id="path101" d="M132-1299.5h2.5v8H132" fill="none" stroke="#669eeb" stroke-miterlimit="79.84" stroke-width="1" fill-rule="evenodd"/>
  </g>
</svg>
