<svg xmlns="http://www.w3.org/2000/svg" width="51.996" height="80" viewBox="0 0 51.996 80">
  <g id="feature-icon4" transform="translate(-31.001 1335.997)">
    <path id="path239" d="M32-1335v70H82v-70Z" fill="none" stroke="#669eeb" stroke-miterlimit="79.84" stroke-width="2" fill-rule="evenodd"/>
    <path id="path241" d="M81-1331.5H33" fill="none" stroke="#669eeb" stroke-miterlimit="79.84" stroke-width="1" fill-rule="evenodd"/>
    <path id="path243" d="M43.5-1310.534a2.011,2.011,0,0,1,2,2.017,2.011,2.011,0,0,1-2,2.017,2.011,2.011,0,0,1-2-2.017A2.011,2.011,0,0,1,43.5-1310.534Z" fill="none" stroke="#669eeb" stroke-miterlimit="79.84" stroke-width="1" fill-rule="evenodd"/>
    <path id="path245" d="M52.5-1310.534a2.011,2.011,0,0,1,2,2.017,2.011,2.011,0,0,1-2,2.017,2.011,2.011,0,0,1-2-2.017A2.011,2.011,0,0,1,52.5-1310.534Z" fill="none" stroke="#669eeb" stroke-miterlimit="79.84" stroke-width="1" fill-rule="evenodd"/>
    <path id="path247" d="M61.5-1310.534a2.011,2.011,0,0,1,2,2.017,2.011,2.011,0,0,1-2,2.017,2.011,2.011,0,0,1-2-2.017A2.011,2.011,0,0,1,61.5-1310.534Z" fill="none" stroke="#669eeb" stroke-miterlimit="79.84" stroke-width="1" fill-rule="evenodd"/>
    <path id="path249" d="M70.5-1310.534a2.011,2.011,0,0,1,2,2.017,2.011,2.011,0,0,1-2,2.017,2.011,2.011,0,0,1-2-2.017A2.011,2.011,0,0,1,70.5-1310.534Z" fill="none" stroke="#669eeb" stroke-miterlimit="79.84" stroke-width="1" fill-rule="evenodd"/>
    <path id="path251" d="M37.488-1314.493v16.992H76.512v-16.992Z" fill="none" stroke="#669eeb" stroke-miterlimit="79.84" stroke-width="1" fill-rule="evenodd"/>
    <path id="path253" d="M42.489-1264.5v3h5.021v-3" fill="none" stroke="#669eeb" stroke-miterlimit="79.84" stroke-width="1" fill-rule="evenodd"/>
    <path id="path255" d="M54.489-1264.5v3h5.021v-3" fill="none" stroke="#669eeb" stroke-miterlimit="79.84" stroke-width="1" fill-rule="evenodd"/>
    <path id="path257" d="M66.489-1264.5v3H71.51v-3" fill="none" stroke="#669eeb" stroke-miterlimit="79.84" stroke-width="1" fill-rule="evenodd"/>
    <path id="path259" d="M43.5-1261v5" fill="none" stroke="#669eeb" stroke-miterlimit="79.84" stroke-width="1" fill-rule="evenodd"/>
    <path id="path261" d="M46.5-1261v5" fill="none" stroke="#669eeb" stroke-miterlimit="79.84" stroke-width="1" fill-rule="evenodd"/>
    <path id="path263" d="M55.5-1261v5" fill="none" stroke="#669eeb" stroke-miterlimit="79.84" stroke-width="1" fill-rule="evenodd"/>
    <path id="path265" d="M58.5-1261v5" fill="none" stroke="#669eeb" stroke-miterlimit="79.84" stroke-width="1" fill-rule="evenodd"/>
    <path id="path267" d="M67.5-1261v5" fill="none" stroke="#669eeb" stroke-miterlimit="79.84" stroke-width="1" fill-rule="evenodd"/>
    <path id="path269" d="M70.5-1261v5" fill="none" stroke="#669eeb" stroke-miterlimit="79.84" stroke-width="1" fill-rule="evenodd"/>
    <path id="path271" d="M64.259-1279.225l-6.751-11.556a1.069,1.069,0,0,0-2.016,0l-6.752,11.556c-.556.952-.112,1.727.992,1.727H63.267C64.371-1277.5,64.815-1278.273,64.259-1279.225Z" fill="none" stroke="#669eeb" stroke-miterlimit="79.84" stroke-width="1" fill-rule="evenodd"/>
    <path id="path273" d="M57.141-1286.521l-2,3h2l-2,3" fill="none" stroke="#669eeb" stroke-miterlimit="79.84" stroke-width="1" fill-rule="evenodd"/>
  </g>
</svg>
