<svg xmlns="http://www.w3.org/2000/svg" width="240" height="67" viewBox="0 0 240 67">
  <g id="logo" transform="translate(0 0.2)">
    <path id="Контур_1" data-name="Контур 1" d="M0,7.8v18l18.6-8.4V-.2Z" fill="#01008d"/>
    <path id="Контур_2" data-name="Контур 2" d="M0,28.5V46.4L18.6,38V20.4Z" fill="#01008d"/>
    <path id="Контур_3" data-name="Контур 3" d="M0,48.9V66.8l18.6-8.4V40.9Z" fill="#01008d"/>
    <path id="Контур_4" data-name="Контур 4" d="M37.1,7.9V25.8L18.6,17.4V-.2Z" fill="#0052b6"/>
    <path id="Контур_5" data-name="Контур 5" d="M37.1,28.5V46.4L18.6,38V20.5Z" fill="#0052b6"/>
    <path id="Контур_6" data-name="Контур 6" d="M37.1,48.9V66.8L18.6,58.4V40.9Z" fill="#0052b6"/>
    <path id="Контур_7" data-name="Контур 7" d="M0,7.8v18l18.6-8.4V-.2Z" fill="#01008d"/>
    <path id="Контур_8" data-name="Контур 8" d="M0,28.5V46.4L18.6,38V20.4Z" fill="#01008d"/>
    <path id="Контур_9" data-name="Контур 9" d="M0,48.9V66.8l18.6-8.4V40.9Z" fill="#01008d"/>
    <path id="Контур_10" data-name="Контур 10" d="M37.1,7.9V25.8L18.6,17.4V-.2Z" fill="#0052b6"/>
    <path id="Контур_11" data-name="Контур 11" d="M37.1,28.5V46.4L18.6,38V20.5Z" fill="#0052b6"/>
    <path id="Контур_12" data-name="Контур 12" d="M37.1,48.9V66.8L18.6,58.4V40.9Z" fill="#0052b6"/>
    <path id="Контур_13" data-name="Контур 13" d="M221,55.9a11.076,11.076,0,0,1-1.9-.2c-.5-.1-1-.3-1.4-.4V54h.1a3.479,3.479,0,0,0,1.5.7,4.973,4.973,0,0,0,1.6.3,2.861,2.861,0,0,0,1.7-.4.961.961,0,0,0,.6-.9.779.779,0,0,0-.3-.7,1.884,1.884,0,0,0-.9-.4c-.3-.1-.6-.1-.8-.2a4.4,4.4,0,0,1-1-.2,9.439,9.439,0,0,1-.9-.3,1.612,1.612,0,0,1-.7-.4,2.652,2.652,0,0,1-.5-.6,1.884,1.884,0,0,1-.2-.8,1.936,1.936,0,0,1,1-1.6,4.265,4.265,0,0,1,2.4-.6,8.083,8.083,0,0,1,1.6.1,5.732,5.732,0,0,1,1.4.4v1.2h-.1A6.658,6.658,0,0,0,223,49a4.145,4.145,0,0,0-1.6-.2,3.339,3.339,0,0,0-1.5.3.961.961,0,0,0-.6.9,1.136,1.136,0,0,0,.3.8,1.88,1.88,0,0,0,1,.4c.3.1.6.1,1,.2s.7.1,1,.2a3.493,3.493,0,0,1,1.5.7,1.656,1.656,0,0,1,.5,1.2,2.92,2.92,0,0,1-.2.9,2.336,2.336,0,0,1-.7.7,3.7,3.7,0,0,1-1.1.5,3.507,3.507,0,0,1-1.6.3m-8.4-.1V49h-3.4v-.9h8.1V49h-3.4v6.8Zm-7.2.1a11.076,11.076,0,0,1-1.9-.2c-.5-.1-1-.3-1.4-.4V54h.1a3.479,3.479,0,0,0,1.5.7,4.973,4.973,0,0,0,1.6.3,2.861,2.861,0,0,0,1.7-.4.961.961,0,0,0,.6-.9.779.779,0,0,0-.3-.7,1.884,1.884,0,0,0-.9-.4c-.3-.1-.6-.1-.8-.2a4.4,4.4,0,0,1-1-.2,9.439,9.439,0,0,1-.9-.3,1.612,1.612,0,0,1-.7-.4,2.652,2.652,0,0,1-.5-.6,1.884,1.884,0,0,1-.2-.8,1.936,1.936,0,0,1,1-1.6,4.265,4.265,0,0,1,2.4-.6,8.083,8.083,0,0,1,1.6.1,5.732,5.732,0,0,1,1.4.4v1.2h-.1a6.658,6.658,0,0,0-1.2-.6,4.145,4.145,0,0,0-1.6-.2,3.339,3.339,0,0,0-1.5.3.961.961,0,0,0-.6.9,1.136,1.136,0,0,0,.3.8,1.88,1.88,0,0,0,1,.4c.3.1.6.1,1,.2s.7.1,1,.2a3.493,3.493,0,0,1,1.5.7,1.656,1.656,0,0,1,.5,1.2,2.92,2.92,0,0,1-.2.9,2.336,2.336,0,0,1-.7.7,3.7,3.7,0,0,1-1.1.5A4.146,4.146,0,0,1,205.4,55.9Zm-4.5-.1H197V55h1.3V48.9H197v-.8h3.9v.8h-1.3V55h1.3Zm-6.3-3.9a4.438,4.438,0,0,0-.2-1.3,2.4,2.4,0,0,0-1.6-1.6,4.325,4.325,0,0,0-2.6,0,2.4,2.4,0,0,0-1.6,1.6,5.066,5.066,0,0,0-.2,1.3,3.2,3.2,0,0,0,.8,2.3,3.3,3.3,0,0,0,2.2.8,3.113,3.113,0,0,0,2.2-.8A2.644,2.644,0,0,0,194.6,51.9Zm.1-2.9a3.449,3.449,0,0,1,.9,1.2,4.967,4.967,0,0,1,0,3.4,3.805,3.805,0,0,1-.9,1.3,3.923,3.923,0,0,1-1.4.8,5.55,5.55,0,0,1-3.6,0,3.924,3.924,0,0,1-1.4-.8,3.045,3.045,0,0,1-.9-1.3,4.967,4.967,0,0,1,0-3.4,3.805,3.805,0,0,1,.9-1.3,6.376,6.376,0,0,1,1.4-.8,5.23,5.23,0,0,1,1.8-.3,4.844,4.844,0,0,1,1.8.3A5.649,5.649,0,0,1,194.7,49Zm-9.1,6.8h-1.3V52h-4.6v3.8h-1.3V48.1h1.3v3h4.6v-3h1.3Zm-13.6,0h-1.5l-4.4-6.6v6.6h-1.2V48.1h1.9l4,6.1V48.1H172Zm-10.1-3.9a4.438,4.438,0,0,0-.2-1.3,2.4,2.4,0,0,0-1.6-1.6,4.325,4.325,0,0,0-2.6,0,2.4,2.4,0,0,0-1.6,1.6,5.066,5.066,0,0,0-.2,1.3,3.2,3.2,0,0,0,.8,2.3,3.3,3.3,0,0,0,2.2.8,3.113,3.113,0,0,0,2.2-.8A2.419,2.419,0,0,0,161.9,51.9Zm.2-2.9a3.449,3.449,0,0,1,.9,1.2,4.967,4.967,0,0,1,0,3.4,3.805,3.805,0,0,1-.9,1.3,3.923,3.923,0,0,1-1.4.8,5.55,5.55,0,0,1-3.6,0,3.924,3.924,0,0,1-1.4-.8,3.045,3.045,0,0,1-.9-1.3,4.967,4.967,0,0,1,0-3.4,3.805,3.805,0,0,1,.9-1.3,6.376,6.376,0,0,1,1.4-.8,5.23,5.23,0,0,1,1.8-.3,4.844,4.844,0,0,1,1.8.3A8.51,8.51,0,0,1,162.1,49Zm-8.7,6.8h-3.9V55h1.3V48.9h-1.3v-.8h3.9v.8h-1.3V55h1.3Zm-9.2,0V49h-3.4v-.9h8.1V49h-3.4v6.8Zm-6.8.1a4.844,4.844,0,0,1-1.8-.3,3.223,3.223,0,0,1-1.4-.8,2.73,2.73,0,0,1-.9-1.2,4.967,4.967,0,0,1,0-3.4,2.73,2.73,0,0,1,.9-1.2,6.376,6.376,0,0,1,1.4-.8,5.23,5.23,0,0,1,1.8-.3,2.483,2.483,0,0,1,.9.1c.3,0,.6.1.8.1a6.373,6.373,0,0,0,.7.2c.2.1.5.2.7.3v1.2h-.1a2.186,2.186,0,0,0-.5-.3,4.875,4.875,0,0,0-.7-.3c-.3-.1-.5-.2-.8-.3a3.083,3.083,0,0,0-1-.1,5.019,5.019,0,0,0-1.2.2,2.075,2.075,0,0,0-1,.6,3.591,3.591,0,0,0-.7,1,2.745,2.745,0,0,0-.2,1.3,4.438,4.438,0,0,0,.2,1.3,3.591,3.591,0,0,0,.7,1,3.328,3.328,0,0,0,1,.6,5.019,5.019,0,0,0,1.2.2,4.1,4.1,0,0,0,1.1-.1l.9-.3a3.33,3.33,0,0,0,.6-.3,1.38,1.38,0,0,0,.4-.3h.1v1.2a1.421,1.421,0,0,1-.6.2,6.373,6.373,0,0,1-.7.2c-.3.1-.6.1-.8.2A2.787,2.787,0,0,1,137.4,55.9Zm-9.4,0a6.052,6.052,0,0,1-1.5-.2,3.7,3.7,0,0,1-1.1-.5,2.286,2.286,0,0,1-.7-1,5.212,5.212,0,0,1-.2-1.4V48h1.3v4.8a2.483,2.483,0,0,0,.1.9,3.329,3.329,0,0,0,.3.6,1.794,1.794,0,0,0,.7.5,3.125,3.125,0,0,0,2.2,0,2.177,2.177,0,0,0,.8-.5.864.864,0,0,0,.3-.6,2.219,2.219,0,0,0,.1-.9V48h1.3v4.8a5.9,5.9,0,0,1-.2,1.4,2.286,2.286,0,0,1-.7,1,3.7,3.7,0,0,1-1.1.5A4.145,4.145,0,0,1,128,55.9Zm-7.2-5.6a1.421,1.421,0,0,0-.2-.6,1,1,0,0,0-.5-.4,1.445,1.445,0,0,0-.7-.2c-.3,0-.6-.1-.9-.1h-1.3v2.9h1.2a3.083,3.083,0,0,0,1-.1,6.89,6.89,0,0,0,.8-.3,1,1,0,0,0,.4-.5A1.854,1.854,0,0,0,120.8,50.3Zm2.9,5.5H122l-3.2-3h-1.5v3H116V48.1h2.6a5.313,5.313,0,0,1,1.4.1,3.545,3.545,0,0,1,1.1.3,2.7,2.7,0,0,1,.8.7,1.689,1.689,0,0,1,.3,1,1.816,1.816,0,0,1-.6,1.4,2.751,2.751,0,0,1-1.5.8Zm-13.5,0V49h-3.4v-.9h8.1V49h-3.4v6.8Zm-7.3.1a11.076,11.076,0,0,1-1.9-.2c-.5-.1-1-.3-1.4-.4V54h.1a3.479,3.479,0,0,0,1.5.7,4.973,4.973,0,0,0,1.6.3,2.861,2.861,0,0,0,1.7-.4.961.961,0,0,0,.6-.9.779.779,0,0,0-.3-.7,1.884,1.884,0,0,0-.9-.4c-.3-.1-.6-.1-.8-.2a4.4,4.4,0,0,1-1-.2,9.44,9.44,0,0,1-.9-.3,1.612,1.612,0,0,1-.7-.4,2.651,2.651,0,0,1-.5-.6,1.884,1.884,0,0,1-.2-.8,1.936,1.936,0,0,1,1-1.6,4.265,4.265,0,0,1,2.4-.6,8.083,8.083,0,0,1,1.6.1,5.732,5.732,0,0,1,1.4.4v1.2H106a6.658,6.658,0,0,0-1.2-.6,4.145,4.145,0,0,0-1.6-.2,3.339,3.339,0,0,0-1.5.3.961.961,0,0,0-.6.9,1.135,1.135,0,0,0,.3.8,1.88,1.88,0,0,0,1,.4c.3.1.6.1,1,.2s.7.1,1,.2a3.493,3.493,0,0,1,1.5.7,1.656,1.656,0,0,1,.5,1.2,2.92,2.92,0,0,1-.2.9,2.336,2.336,0,0,1-.7.7,3.7,3.7,0,0,1-1.1.5A3.34,3.34,0,0,1,102.9,55.9Zm-4.8-.1H96.6l-4.4-6.6v6.6H91V48.1h1.9l4,6.1V48.1h1.2Zm-10-3.9a4.438,4.438,0,0,0-.2-1.3A2.4,2.4,0,0,0,86.3,49a4.325,4.325,0,0,0-2.6,0,2.4,2.4,0,0,0-1.6,1.6,5.283,5.283,0,0,0-.1,1.3,3.2,3.2,0,0,0,.8,2.3A3.3,3.3,0,0,0,85,55a3.113,3.113,0,0,0,2.2-.8A2.869,2.869,0,0,0,88.1,51.9Zm.1-2.9a3.449,3.449,0,0,1,.9,1.2,4.967,4.967,0,0,1,0,3.4,3.805,3.805,0,0,1-.9,1.3,3.924,3.924,0,0,1-1.4.8,5.55,5.55,0,0,1-3.6,0,3.924,3.924,0,0,1-1.4-.8,3.045,3.045,0,0,1-.9-1.3,4.967,4.967,0,0,1,0-3.4,3.805,3.805,0,0,1,.9-1.3,6.376,6.376,0,0,1,1.4-.8A9.722,9.722,0,0,1,85,48a4.844,4.844,0,0,1,1.8.3A2.649,2.649,0,0,1,88.2,49ZM76.8,55.9a4.844,4.844,0,0,1-1.8-.3,3.224,3.224,0,0,1-1.4-.8,2.73,2.73,0,0,1-.9-1.2,4.967,4.967,0,0,1,0-3.4,2.73,2.73,0,0,1,.9-1.2,6.376,6.376,0,0,1,1.4-.8,5.23,5.23,0,0,1,1.8-.3,2.483,2.483,0,0,1,.9.1c.3,0,.6.1.8.1a6.374,6.374,0,0,0,.7.2c.2.1.5.2.7.3v1.2h-.1a2.186,2.186,0,0,0-.5-.3,4.875,4.875,0,0,0-.7-.3c-.3-.1-.5-.2-.8-.3a3.083,3.083,0,0,0-1-.1,5.019,5.019,0,0,0-1.2.2,2.075,2.075,0,0,0-1,.6,3.591,3.591,0,0,0-.7,1,2.745,2.745,0,0,0-.2,1.3,4.438,4.438,0,0,0,.2,1.3,3.592,3.592,0,0,0,.7,1,3.328,3.328,0,0,0,1,.6,2.537,2.537,0,0,0,1.2.2,4.1,4.1,0,0,0,1.1-.1l.9-.3a3.329,3.329,0,0,0,.6-.3,1.38,1.38,0,0,0,.4-.3h.1v1.2a1.421,1.421,0,0,1-.6.2,6.374,6.374,0,0,1-.7.2c-.3.1-.6.1-.8.2A3.083,3.083,0,0,1,76.8,55.9ZM226.9,21a2.767,2.767,0,0,0-.5-1.6,2.84,2.84,0,0,0-1.5-1,4.671,4.671,0,0,0-1.7-.3c-.6,0-1.4-.1-2.3-.1h-2.7v6.7h2.3a23.283,23.283,0,0,0,2.9-.2,3.971,3.971,0,0,0,2-.7,4.263,4.263,0,0,0,1.2-1.1A3.984,3.984,0,0,0,226.9,21ZM240,38.2h-9.9l-9-9.1h-2.9v9.1H210V13.5h13a31.8,31.8,0,0,1,4.7.3,11.357,11.357,0,0,1,3.7,1.1,8.932,8.932,0,0,1,2.8,2.1,5.183,5.183,0,0,1,1,3.3,6.519,6.519,0,0,1-1.7,4.6,11.174,11.174,0,0,1-4.5,2.8ZM196.8,25.8a10.824,10.824,0,0,0-.6-3.8,7.6,7.6,0,0,0-1.6-2.6,6.08,6.08,0,0,0-2.4-1.5,8.423,8.423,0,0,0-2.7-.4,7.664,7.664,0,0,0-2.7.4,7.91,7.91,0,0,0-2.4,1.5,6.075,6.075,0,0,0-1.6,2.6,10.825,10.825,0,0,0-.6,3.8,10.444,10.444,0,0,0,.6,3.8,7.16,7.16,0,0,0,1.6,2.5,6.08,6.08,0,0,0,2.4,1.5,8.94,8.94,0,0,0,5.6-.1,5.131,5.131,0,0,0,2.3-1.5,8.214,8.214,0,0,0,1.6-2.5A11.754,11.754,0,0,0,196.8,25.8Zm8.4,0a11.473,11.473,0,0,1-4.2,9.4c-2.8,2.3-6.6,3.4-11.5,3.4s-8.7-1.2-11.5-3.5a11.607,11.607,0,0,1-4.2-9.4,11.473,11.473,0,0,1,4.2-9.4c2.8-2.3,6.6-3.5,11.5-3.5s8.7,1.2,11.5,3.4A12.149,12.149,0,0,1,205.2,25.8ZM154.6,38.2v-20H145V13.5h27.3v4.7h-9.6v20Zm-22,.5c-4.9,0-8.7-1.1-11.6-3.4-2.9-2.2-4.3-5.4-4.3-9.5a11.4,11.4,0,0,1,4.3-9.4c2.9-2.3,6.7-3.5,11.6-3.5a34.912,34.912,0,0,1,3.5.2c1,.1,2,.3,3,.5.7.2,1.5.4,2.4.7s1.6.5,2.1.7v5.9h-.8a9.878,9.878,0,0,0-1.5-.9c-.6-.4-1.3-.7-2-1.1a10.639,10.639,0,0,0-2.5-.9,13.5,13.5,0,0,0-2.8-.4,10.377,10.377,0,0,0-3.2.4,8.483,8.483,0,0,0-2.8,1.5,6.7,6.7,0,0,0-2,2.6,8.873,8.873,0,0,0-.8,3.8,9.346,9.346,0,0,0,.8,3.9,6.41,6.41,0,0,0,2.1,2.5,7.19,7.19,0,0,0,2.8,1.3,11,11,0,0,0,3.1.4,10.55,10.55,0,0,0,3.1-.4,23.03,23.03,0,0,0,2.5-.9,16.451,16.451,0,0,0,1.9-1,15.142,15.142,0,0,1,1.4-.9h.7v5.8c-.6.2-1.3.4-2.1.7a21.719,21.719,0,0,1-2.4.7c-1,.2-2,.4-2.8.5A35.746,35.746,0,0,1,132.6,38.7Zm-41.5-.5V13.5H113v4.7H99.3v4.3H112v4.7H99.3v6.2h13.8v4.7h-22ZM88.2,13.5,77,38.2H68.5L57.3,13.5h8.4l7.1,16.8,7.1-16.8Z" fill="#1d1d1b"/>
  </g>
</svg>
